<?xml version="1.0" encoding="UTF-8"?><svg id="Layer_2" xmlns="http://www.w3.org/2000/svg" viewBox="0 0 128 127.99"><defs><style>.cls-1{fill:#171717;}.cls-1,.cls-2,.cls-3{stroke-width:0px;}.cls-2{fill:#f5f5f5;}.cls-3{fill:#2374e1;}</style></defs><g id="DX_PUB"><path class="cls-1" d="M64,126.49C29.54,126.49,1.5,98.46,1.5,64S29.54,1.5,64,1.5s62.5,28.04,62.5,62.5-28.04,62.49-62.5,62.49Z"/><path class="cls-3" d="M64,3c33.63,0,61,27.36,61,61s-27.36,60.99-61,60.99S3,97.63,3,64,30.37,3,64,3M64,0C28.65,0,0,28.65,0,64s28.65,63.99,64,63.99,64-28.66,64-63.99S99.35,0,64,0h0Z"/><path class="cls-2" d="M53.26,107.64h-5.47c-1.04,0-1.87-.84-1.87-1.87v-26.97c0-1.04.84-1.87,1.87-1.87h5.47c1.04,0,1.87-.84,1.87-1.87v-2.65c0-1.04-.84-1.87-1.87-1.87h-11.88c-1.04,0-1.87.84-1.87,1.87v39.77c0,1.04.84,1.87,1.87,1.87h11.88c1.04,0,1.87-.84,1.87-1.87v-2.65c0-1.04-.84-1.87-1.87-1.87Z"/><path class="cls-3" d="M68.17,86.08h-12.84c-.64,0-1.16.52-1.16,1.16v10.25c0,.64.52,1.16,1.16,1.16h12.84c.64,0,1.16.52,1.16,1.16v6.5c0,.99,1.15,1.53,1.91.9l16.83-13.95c.56-.47.56-1.33,0-1.79l-16.83-13.88c-.76-.63-1.91-.09-1.91.9v6.43c0,.64-.52,1.16-1.16,1.16Z"/><path class="cls-2" d="M11.72,61.93v-21.28h7.65c1.5,0,2.88.27,4.15.82,1.27.55,2.38,1.3,3.33,2.26.95.96,1.69,2.09,2.23,3.39.54,1.3.81,2.7.81,4.2s-.27,2.89-.8,4.18c-.53,1.29-1.27,2.41-2.23,3.36-.96.95-2.07,1.7-3.34,2.25-1.27.55-2.65.82-4.15.82h-7.65ZM15.84,58.01h3.47c.89,0,1.72-.17,2.49-.52.77-.34,1.44-.82,2.02-1.43.58-.61,1.02-1.31,1.34-2.11s.47-1.68.47-2.63-.16-1.81-.47-2.63c-.31-.82-.76-1.54-1.34-2.16-.58-.62-1.25-1.1-2.02-1.44s-1.59-.52-2.46-.52h-3.5v13.44Z"/><path class="cls-2" d="M28.95,61.93l7.59-11-7.22-10.27h4.95l4.72,6.99,4.72-6.99h4.72l-7.08,10.27,7.68,11h-4.92l-5.2-7.72-5.2,7.72h-4.75Z"/><path class="cls-3" d="M62.2,61.93v-21.28h9.98c1.31,0,2.46.29,3.47.87s1.79,1.37,2.35,2.37.84,2.15.84,3.45-.28,2.38-.84,3.37c-.56.99-1.35,1.77-2.36,2.34s-2.17.85-3.45.85h-5.86v8.02h-4.12ZM66.32,50.26h5.4c.89,0,1.61-.27,2.14-.81.54-.54.81-1.23.81-2.08s-.27-1.61-.81-2.14c-.54-.54-1.25-.81-2.14-.81h-5.4v5.84Z"/><path class="cls-3" d="M90.06,62.24c-1.78,0-3.34-.38-4.66-1.16s-2.35-1.87-3.06-3.3-1.07-3.12-1.07-5.06v-12.07h4.1v12.07c0,1.12.19,2.08.58,2.9.39.82.94,1.45,1.65,1.88.71.44,1.53.65,2.46.65.99,0,1.83-.22,2.52-.65.69-.44,1.23-1.06,1.61-1.88.38-.82.57-1.79.57-2.9v-12.07h4.12v12.07c0,1.93-.36,3.6-1.08,5.03-.72,1.43-1.74,2.53-3.06,3.31-1.32.78-2.88,1.17-4.68,1.17Z"/><path class="cls-3" d="M102.17,61.93v-21.28h9.36c1.34,0,2.52.24,3.53.73,1,.49,1.79,1.17,2.36,2.05.57.88.85,1.9.85,3.05,0,.95-.22,1.81-.65,2.57-.44.76-1.05,1.4-1.85,1.93.99.45,1.77,1.09,2.35,1.93.58.84.87,1.79.87,2.84,0,1.24-.29,2.32-.88,3.24-.59.92-1.41,1.64-2.46,2.16-1.05.52-2.27.78-3.65.78h-9.81ZM106.3,49.38h4.97c.89,0,1.59-.23,2.11-.7.51-.47.77-1.08.77-1.85s-.25-1.38-.77-1.84c-.51-.46-1.21-.68-2.11-.68h-4.97v5.08ZM106.3,58.28h5.37c.97,0,1.73-.25,2.29-.74.56-.5.84-1.16.84-1.99s-.28-1.5-.84-2.01c-.56-.51-1.32-.76-2.29-.76h-5.37v5.5Z"/><path class="cls-2" d="M52.87,58.21v-5.33h-4.99v-3.12h4.99v-5.33h3.21v5.33h4.96v3.12h-4.96v5.33h-3.21Z"/></g></svg>